<svg width="20" height="21" viewBox="0 0 20 21" fill="none" xmlns="http://www.w3.org/2000/svg">
<path d="M18.7925 8.9566L18.7926 8.9567C18.963 9.12608 19.0981 9.3276 19.19 9.54958C19.282 9.77157 19.3289 10.0096 19.3281 10.2499V10.25V19.25C19.3281 19.536 19.2145 19.8102 19.0124 20.0124C18.8102 20.2146 18.5359 20.3281 18.25 20.3281H1.75001C1.46407 20.3281 1.18985 20.2146 0.98766 20.0124C0.785472 19.8102 0.671885 19.536 0.671885 19.25L0.671885 10.25L0.671884 10.2499C0.671113 10.0096 0.718055 9.77157 0.809987 9.54959C0.901918 9.3276 1.03701 9.12608 1.20743 8.9567L1.20753 8.9566L8.70752 1.45661C8.70753 1.4566 8.70753 1.4566 8.70753 1.4566C9.05035 1.11388 9.51526 0.921356 10 0.921356C10.4848 0.921356 10.9497 1.11388 11.2925 1.4566C11.2925 1.4566 11.2925 1.4566 11.2925 1.45661L18.7925 8.9566ZM17.125 18.1719H17.1719V18.125V10.4047V10.3853L17.1582 10.3716L10.0332 3.24656L10 3.21341L9.96686 3.24656L2.84186 10.3716L2.82813 10.3853V10.4047V18.125V18.1719H2.87501H17.125Z" fill="#475569" stroke="#475569" stroke-width="0.09375"/>
</svg>
