<svg width="18" height="24" viewBox="0 0 18 24" fill="none" xmlns="http://www.w3.org/2000/svg">
<path d="M17.552 11.0146L17.552 11.0147C17.5908 11.1863 17.587 11.3647 17.5409 11.5345C17.4949 11.7042 17.408 11.8602 17.2879 11.9886L17.2879 11.9887L6.78785 23.2387L6.78783 23.2387C6.6307 23.4073 6.42368 23.5211 6.19714 23.5634C5.97059 23.6057 5.73645 23.5744 5.52905 23.4739C5.32164 23.3734 5.1519 23.2091 5.04471 23.0051C4.93752 22.801 4.89853 22.568 4.93345 22.3402L4.93348 22.3401L5.92629 15.7176L5.93179 15.6809L5.89734 15.6671L1.09923 13.7481C0.936535 13.6829 0.792172 13.5791 0.678646 13.4456C0.565121 13.3121 0.485855 13.1529 0.447715 12.9818C0.409575 12.8108 0.41371 12.633 0.459762 12.4639C0.505814 12.2948 0.592395 12.1395 0.712005 12.0114L0.712013 12.0114L11.212 0.761372L11.212 0.761347C11.3692 0.592751 11.5762 0.478943 11.8027 0.436615C12.0293 0.394287 12.2634 0.425668 12.4708 0.526154C12.6782 0.62664 12.848 0.790943 12.9552 0.994963C13.0623 1.19898 13.1013 1.43198 13.0664 1.65978L13.0664 1.65994L12.0736 8.27962L12.0681 8.31632L12.1025 8.3301L16.9006 10.2492C16.9006 10.2492 16.9006 10.2492 16.9006 10.2492C17.0632 10.3143 17.2075 10.418 17.321 10.5513C17.4345 10.6847 17.5138 10.8437 17.552 11.0146ZM7.60358 19.0759L7.58116 19.2252L7.6842 19.1148L14.5898 11.7161L14.6366 11.666L14.573 11.6406L10.4742 10.0009C10.2487 9.91065 10.0603 9.74694 9.93947 9.53626C9.81864 9.32558 9.77248 9.08027 9.80848 8.84009L10.3963 4.92416L10.4187 4.77482L10.3157 4.88522L3.41004 12.284L3.36331 12.334L3.4269 12.3595L7.52564 13.9992C7.75114 14.0894 7.93957 14.2531 8.0604 14.4638C8.18123 14.6744 8.22738 14.9197 8.19139 15.1599C8.19139 15.1599 8.19139 15.1599 8.19139 15.1599L7.60358 19.0759Z" fill="#475569" stroke="#475569" stroke-width="0.09375"/>
</svg>
