<svg width="22" height="21" viewBox="0 0 22 21" fill="none" xmlns="http://www.w3.org/2000/svg">
<path d="M15.2469 13.6597L15.1805 13.7094L15.2573 13.7406C17.6531 14.7132 19.6519 16.4636 20.932 18.7101C21.0639 18.9568 21.0947 19.245 21.0181 19.514C20.9413 19.7831 20.7629 20.0119 20.5206 20.1519C20.2783 20.2919 19.991 20.3322 19.7195 20.2642C19.4482 20.1963 19.214 20.0257 19.0661 19.7884C17.3591 16.8393 14.3441 15.0781 11 15.0781C7.65567 15.0781 4.6404 16.8386 2.93347 19.789L2.93345 19.789L2.93272 19.7904C2.86451 19.9178 2.77139 20.0302 2.65888 20.1209C2.54636 20.2116 2.41676 20.2788 2.27777 20.3184C2.13878 20.3581 1.99324 20.3693 1.84981 20.3516C1.70638 20.3339 1.56797 20.2875 1.44283 20.2151C1.31769 20.1428 1.20836 20.0461 1.12135 19.9307C1.03433 19.8153 0.971409 19.6836 0.936316 19.5434C0.901224 19.4032 0.894679 19.2574 0.917071 19.1146C0.939463 18.9718 0.990334 18.835 1.06666 18.7123L1.06669 18.7123L1.06758 18.7107C2.34773 16.464 4.34667 14.7133 6.74261 13.7406L6.81943 13.7094L6.75311 13.6597C5.56465 12.7683 4.68676 11.5257 4.24381 10.1077C3.80086 8.68966 3.8153 7.16823 4.28508 5.75889C4.75486 4.34955 5.65617 3.12375 6.86133 2.25512C8.06649 1.38649 9.51441 0.919067 11 0.919067C12.4856 0.919067 13.9335 1.38649 15.1386 2.25512C16.3438 3.12375 17.2451 4.34955 17.7149 5.75889C18.1847 7.16823 18.1991 8.68966 17.7561 10.1077C17.3132 11.5257 16.4353 12.7683 15.2469 13.6597ZM6.07811 8V8.00006C6.07961 9.30495 6.59864 10.556 7.52133 11.4787C8.44403 12.4013 9.69504 12.9204 10.9999 12.9219H11C11.9734 12.9219 12.925 12.6332 13.7344 12.0924C14.5438 11.5516 15.1747 10.7829 15.5472 9.88352C15.9197 8.98417 16.0172 7.99454 15.8273 7.03979C15.6374 6.08504 15.1686 5.20805 14.4803 4.51971C13.7919 3.83138 12.9149 3.36261 11.9602 3.1727C11.0054 2.98279 10.0158 3.08026 9.11646 3.45279C8.21711 3.82531 7.44841 4.45616 6.90759 5.26556C6.36677 6.07496 6.07811 7.02655 6.07811 8Z" fill="#475569" stroke="#475569" stroke-width="0.09375"/>
</svg>
